<svg width="122" height="24" viewBox="0 0 122 24" fill="none" xmlns="http://www.w3.org/2000/svg">
<path d="M103.495 19V7.50063H105.725L105.944 9.03096H106.097C106.345 8.68117 106.629 8.3751 106.95 8.11276C107.27 7.83584 107.635 7.62451 108.043 7.47876C108.465 7.31844 108.924 7.23828 109.42 7.23828C110.09 7.23828 110.688 7.37674 111.213 7.65366C111.737 7.93058 112.145 8.38968 112.437 9.03096H112.59C112.838 8.68117 113.129 8.3751 113.464 8.11276C113.8 7.83584 114.186 7.62451 114.623 7.47876C115.06 7.31844 115.534 7.23828 116.044 7.23828C116.729 7.23828 117.334 7.36217 117.859 7.60993C118.383 7.8577 118.799 8.26579 119.105 8.8342C119.411 9.40261 119.564 10.1605 119.564 11.1078V19H116.897V11.6544C116.897 11.2609 116.853 10.933 116.766 10.6706C116.678 10.3937 116.554 10.1824 116.394 10.0366C116.248 9.87629 116.059 9.75969 115.826 9.68682C115.607 9.61395 115.366 9.57751 115.104 9.57751C114.681 9.57751 114.303 9.69411 113.967 9.9273C113.632 10.1605 113.362 10.4811 113.158 10.8892C112.969 11.2973 112.874 11.771 112.874 12.3103V19H110.207V11.6544C110.207 11.2609 110.163 10.933 110.076 10.6706C109.988 10.3937 109.865 10.1824 109.704 10.0366C109.558 9.87629 109.369 9.75969 109.136 9.68682C108.917 9.61395 108.677 9.57751 108.414 9.57751C107.992 9.57751 107.605 9.69411 107.256 9.9273C106.92 10.1605 106.651 10.4811 106.447 10.8892C106.257 11.2973 106.163 11.771 106.163 12.3103V19H103.495Z" fill="#131313"/>
<path d="M96.2579 19V7.50063H98.4879L98.7065 9.31517H98.8595C99.0053 8.9508 99.1801 8.61558 99.3842 8.30952C99.6028 7.98888 99.8797 7.73382 100.215 7.54435C100.55 7.3403 100.958 7.23828 101.439 7.23828C101.672 7.23828 101.884 7.26014 102.073 7.30387C102.277 7.34759 102.43 7.39132 102.532 7.43504V9.94916H101.723C101.272 9.94916 100.871 10.0147 100.521 10.1459C100.171 10.2625 99.8724 10.452 99.6247 10.7143C99.3915 10.9767 99.2166 11.3046 99.1 11.6981C98.9834 12.0916 98.9251 12.5507 98.9251 13.0754V19H96.2579Z" fill="#131313"/>
<path d="M87.7446 19.2624C87.4239 19.2624 87.0523 19.2186 86.6296 19.1312C86.2215 19.0583 85.8207 18.9126 85.4272 18.6939C85.0483 18.4753 84.7349 18.1547 84.4871 17.732C84.2394 17.2948 84.1155 16.7264 84.1155 16.0268C84.1155 15.2398 84.2904 14.5912 84.6402 14.0811C84.99 13.5564 85.4782 13.1483 86.1049 12.8568C86.7462 12.5507 87.5041 12.3394 88.3786 12.2228C89.2676 12.0916 90.2368 12.026 91.2862 12.026V11.086C91.2862 10.7508 91.2352 10.452 91.1332 10.1896C91.0311 9.9273 90.8417 9.72326 90.5648 9.57751C90.3024 9.41719 89.9016 9.33703 89.3623 9.33703C88.8231 9.33703 88.4004 9.40261 88.0944 9.53379C87.7883 9.66496 87.5769 9.82528 87.4604 10.0147C87.3438 10.2042 87.2855 10.401 87.2855 10.605V10.9111H84.7057C84.6912 10.8382 84.6839 10.7653 84.6839 10.6925C84.6839 10.6196 84.6839 10.5321 84.6839 10.4301C84.6839 9.77427 84.8806 9.20586 85.2742 8.72489C85.6677 8.24393 86.2142 7.87957 86.9138 7.6318C87.6134 7.36945 88.4223 7.23828 89.3405 7.23828C90.3899 7.23828 91.2498 7.38403 91.9202 7.67552C92.6052 7.96701 93.1153 8.38239 93.4505 8.92165C93.7857 9.46091 93.9534 10.1168 93.9534 10.8892V16.311C93.9534 16.5879 94.0335 16.7847 94.1938 16.9013C94.3542 17.0179 94.5291 17.0762 94.7185 17.0762H95.4181V18.9126C95.2724 18.9709 95.061 19.0364 94.7841 19.1093C94.5072 19.1968 94.1647 19.2405 93.7566 19.2405C93.3777 19.2405 93.0351 19.1749 92.7291 19.0437C92.4376 18.9271 92.1898 18.7522 91.9858 18.519C91.7817 18.2859 91.636 18.0089 91.5485 17.6883H91.4174C91.1696 17.9944 90.8708 18.2713 90.521 18.519C90.1858 18.7522 89.785 18.9344 89.3186 19.0656C88.8668 19.1968 88.3421 19.2624 87.7446 19.2624ZM88.5535 17.0762C88.9907 17.0762 89.3769 17.0106 89.7121 16.8794C90.0619 16.7482 90.3461 16.566 90.5648 16.3329C90.7979 16.0997 90.9728 15.8155 91.0894 15.4802C91.2206 15.145 91.2862 14.7807 91.2862 14.3871V13.8625C90.4846 13.8625 89.7413 13.9135 89.0563 14.0155C88.3858 14.1175 87.8466 14.307 87.4385 14.5839C87.045 14.8608 86.8482 15.2543 86.8482 15.7644C86.8482 16.0268 86.9065 16.26 87.0231 16.464C87.1543 16.6535 87.3438 16.8065 87.5915 16.9231C87.8539 17.0251 88.1745 17.0762 88.5535 17.0762Z" fill="#131313"/>
<path d="M73.0566 19V4.00269H83.8345V6.42936H75.8986V10.452H83.0475V12.8786H75.8986V19H73.0566Z" fill="#131313"/>
<path d="M66.1854 19.2624C64.9612 19.2624 63.941 19.051 63.1248 18.6284C62.3086 18.1911 61.6965 17.528 61.2884 16.6389C60.8803 15.7499 60.6762 14.6203 60.6762 13.2503C60.6762 11.8657 60.8803 10.7362 61.2884 9.86171C61.6965 8.97266 62.3086 8.3168 63.1248 7.89414C63.941 7.4569 64.9612 7.23828 66.1854 7.23828C67.2931 7.23828 68.2186 7.44961 68.9619 7.87228C69.7198 8.28037 70.2882 8.91436 70.6672 9.77427C71.0461 10.6342 71.2356 11.7491 71.2356 13.1191V13.9062H63.409C63.4381 14.6203 63.5474 15.2252 63.7369 15.7207C63.9264 16.2017 64.2179 16.566 64.6114 16.8138C65.0195 17.047 65.5515 17.1636 66.2073 17.1636C66.5425 17.1636 66.8559 17.1199 67.1474 17.0324C67.4389 16.945 67.6939 16.8138 67.9125 16.6389C68.1312 16.4494 68.2988 16.2163 68.4154 15.9393C68.5465 15.6624 68.6121 15.3418 68.6121 14.9774H71.2356C71.2356 15.7061 71.1044 16.3401 70.842 16.8794C70.5943 17.4187 70.2372 17.8632 69.7708 18.213C69.319 18.5628 68.787 18.8251 68.1749 19C67.5628 19.1749 66.8996 19.2624 66.1854 19.2624ZM63.4527 12.026H68.4591C68.4591 11.5451 68.4008 11.137 68.2842 10.8018C68.1822 10.4666 68.0291 10.1896 67.8251 9.97102C67.6356 9.75241 67.4024 9.59937 67.1255 9.51192C66.8486 9.4099 66.5352 9.35889 66.1854 9.35889C65.617 9.35889 65.1361 9.45363 64.7426 9.6431C64.3636 9.83257 64.0721 10.1241 63.8681 10.5176C63.664 10.9111 63.5256 11.4139 63.4527 12.026Z" fill="#131313"/>
<path d="M50.9133 22.9789C50.4032 22.9789 49.9223 22.8769 49.4704 22.6728C49.0186 22.4688 48.6543 22.1627 48.3773 21.7546C48.1004 21.3611 47.962 20.8728 47.962 20.2899C47.962 19.6486 48.1442 19.1458 48.5085 18.7814C48.8875 18.4024 49.3028 18.1182 49.7547 17.9288C49.4194 17.7539 49.1425 17.5207 48.9239 17.2292C48.7199 16.9377 48.6178 16.5879 48.6178 16.1798C48.6178 15.626 48.8219 15.1887 49.23 14.8681C49.6381 14.5329 50.1044 14.3143 50.6291 14.2122C50.0899 13.877 49.6745 13.4471 49.383 12.9224C49.1061 12.3977 48.9676 11.8001 48.9676 11.1297C48.9676 10.3281 49.1571 9.64309 49.536 9.07468C49.9295 8.4917 50.498 8.03988 51.2413 7.71924C51.9846 7.3986 52.8809 7.23828 53.9303 7.23828C54.353 7.23828 54.761 7.26743 55.1546 7.32573C55.5481 7.38403 55.9051 7.47147 56.2258 7.58807C56.7359 7.282 57.0857 6.9395 57.2752 6.56056C57.4646 6.16704 57.5667 5.8464 57.5812 5.59863H60.1828C60.1828 6.10875 60.0808 6.56056 59.8767 6.95407C59.6873 7.34759 59.4176 7.67552 59.0678 7.93786C58.7181 8.18563 58.2954 8.36781 57.7999 8.48441C58.1642 8.80505 58.4411 9.19128 58.6306 9.64309C58.8201 10.0949 58.9148 10.5904 58.9148 11.1297C58.9148 11.9313 58.7253 12.6236 58.3464 13.2066C57.982 13.7896 57.4355 14.2414 56.7068 14.562C55.9926 14.8827 55.1108 15.043 54.0615 15.043H52.2906C51.9846 15.043 51.7441 15.1086 51.5692 15.2398C51.4089 15.3709 51.3287 15.5531 51.3287 15.7863C51.3287 15.9758 51.4016 16.1434 51.5473 16.2891C51.7077 16.4349 51.9263 16.5077 52.2032 16.5077H57.2314C58.0913 16.5077 58.7982 16.7919 59.352 17.3604C59.9205 17.9142 60.2047 18.6284 60.2047 19.5028C60.2047 20.1587 60.0298 20.749 59.68 21.2736C59.3448 21.7983 58.8711 22.2137 58.2589 22.5198C57.6468 22.8258 56.9327 22.9789 56.1165 22.9789H50.9133ZM51.8753 21.055H56.0946C56.3715 21.055 56.612 21.004 56.8161 20.902C57.0347 20.8145 57.2023 20.6834 57.3189 20.5085C57.4501 20.3336 57.5156 20.1368 57.5156 19.9182C57.5156 19.5393 57.3918 19.2551 57.144 19.0656C56.9108 18.8761 56.6193 18.7814 56.2695 18.7814H51.8753C51.5255 18.7814 51.234 18.8834 51.0008 19.0875C50.7676 19.3061 50.651 19.583 50.651 19.9182C50.651 20.2534 50.7603 20.5231 50.9789 20.7271C51.2121 20.9457 51.5109 21.055 51.8753 21.055ZM53.9521 13.1629C54.7246 13.1629 55.3003 12.988 55.6792 12.6382C56.0728 12.2738 56.2695 11.771 56.2695 11.1297C56.2695 10.4884 56.0728 9.99288 55.6792 9.64309C55.3003 9.2933 54.7246 9.11841 53.9521 9.11841C53.1797 9.11841 52.5967 9.2933 52.2032 9.64309C51.8242 9.99288 51.6348 10.4884 51.6348 11.1297C51.6348 11.5524 51.7149 11.9167 51.8753 12.2228C52.0502 12.5289 52.3052 12.7621 52.6404 12.9224C52.9902 13.0827 53.4275 13.1629 53.9521 13.1629Z" fill="#131313"/>
<path d="M36.9275 19V7.50063H39.1574L39.376 9.03096H39.5291C39.7914 8.68117 40.0975 8.3751 40.4473 8.11276C40.8116 7.83584 41.2197 7.62451 41.6715 7.47876C42.1379 7.31844 42.648 7.23828 43.2019 7.23828C43.9306 7.23828 44.5719 7.36945 45.1257 7.6318C45.6941 7.89414 46.1387 8.3168 46.4593 8.89979C46.7799 9.48277 46.9403 10.2625 46.9403 11.239V19H44.2512V11.72C44.2512 11.3119 44.2002 10.9767 44.0982 10.7143C44.0108 10.4374 43.8723 10.2188 43.6828 10.0585C43.5079 9.88358 43.2893 9.75969 43.027 9.68682C42.7646 9.61395 42.4731 9.57751 42.1525 9.57751C41.6715 9.57751 41.2343 9.69411 40.8408 9.9273C40.4618 10.1605 40.1558 10.4811 39.9226 10.8892C39.704 11.2973 39.5946 11.771 39.5946 12.3103V19H36.9275Z" fill="#131313"/>
<path d="M28.4141 19.2624C28.0935 19.2624 27.7219 19.2186 27.2992 19.1312C26.8911 19.0583 26.4903 18.9126 26.0968 18.6939C25.7178 18.4753 25.4045 18.1547 25.1567 17.732C24.9089 17.2948 24.7851 16.7264 24.7851 16.0268C24.7851 15.2398 24.96 14.5912 25.3097 14.0811C25.6595 13.5564 26.1478 13.1483 26.7745 12.8568C27.4158 12.5507 28.1737 12.3394 29.0481 12.2228C29.9372 12.0916 30.9064 12.026 31.9558 12.026V11.086C31.9558 10.7508 31.9048 10.452 31.8027 10.1896C31.7007 9.9273 31.5113 9.72326 31.2343 9.57751C30.972 9.41719 30.5712 9.33703 30.0319 9.33703C29.4927 9.33703 29.07 9.40261 28.7639 9.53379C28.4579 9.66496 28.2465 9.82528 28.1299 10.0147C28.0133 10.2042 27.955 10.401 27.955 10.605V10.9111H25.3753C25.3608 10.8382 25.3535 10.7653 25.3535 10.6925C25.3535 10.6196 25.3535 10.5321 25.3535 10.4301C25.3535 9.77427 25.5502 9.20586 25.9437 8.72489C26.3373 8.24393 26.8838 7.87957 27.5834 7.6318C28.283 7.36945 29.0919 7.23828 30.0101 7.23828C31.0594 7.23828 31.9193 7.38403 32.5898 7.67552C33.2748 7.96701 33.7849 8.38239 34.1201 8.92165C34.4553 9.46091 34.6229 10.1168 34.6229 10.8892V16.311C34.6229 16.5879 34.7031 16.7847 34.8634 16.9013C35.0237 17.0179 35.1986 17.0762 35.3881 17.0762H36.0877V18.9126C35.9419 18.9709 35.7306 19.0364 35.4537 19.1093C35.1768 19.1968 34.8343 19.2405 34.4262 19.2405C34.0472 19.2405 33.7047 19.1749 33.3987 19.0437C33.1072 18.9271 32.8594 18.7522 32.6554 18.519C32.4513 18.2859 32.3056 18.0089 32.2181 17.6883H32.087C31.8392 17.9944 31.5404 18.2713 31.1906 18.519C30.8554 18.7522 30.4546 18.9344 29.9882 19.0656C29.5364 19.1968 29.0117 19.2624 28.4141 19.2624ZM29.223 17.0762C29.6603 17.0762 30.0465 17.0106 30.3817 16.8794C30.7315 16.7482 31.0157 16.566 31.2343 16.3329C31.4675 16.0997 31.6424 15.8155 31.759 15.4802C31.8902 15.145 31.9558 14.7807 31.9558 14.3871V13.8625C31.1542 13.8625 30.4109 13.9135 29.7259 14.0155C29.0554 14.1175 28.5162 14.307 28.1081 14.5839C27.7146 14.8608 27.5178 15.2543 27.5178 15.7644C27.5178 16.0268 27.5761 16.26 27.6927 16.464C27.8239 16.6535 28.0133 16.8065 28.2611 16.9231C28.5235 17.0251 28.8441 17.0762 29.223 17.0762Z" fill="#131313"/>
<path d="M18.4388 19V7.50063H20.6687L20.8873 9.31517H21.0404C21.1861 8.9508 21.361 8.61558 21.565 8.30952C21.7837 7.98888 22.0606 7.73382 22.3958 7.54435C22.731 7.3403 23.1391 7.23828 23.6201 7.23828C23.8533 7.23828 24.0646 7.26014 24.2541 7.30387C24.4581 7.34759 24.6111 7.39132 24.7132 7.43504V9.94916H23.9043C23.4525 9.94916 23.0517 10.0147 22.7019 10.1459C22.3521 10.2625 22.0533 10.452 21.8055 10.7143C21.5723 10.9767 21.3974 11.3046 21.2808 11.6981C21.1642 12.0916 21.1059 12.5507 21.1059 13.0754V19H18.4388Z" fill="#131313"/>
<path d="M9.14797 19.2623C7.58849 19.2623 6.24033 18.9854 5.10351 18.4316C3.96669 17.8632 3.09221 17.0033 2.48008 15.8519C1.88252 14.7005 1.58374 13.2503 1.58374 11.5013C1.58374 9.73782 1.88252 8.28764 2.48008 7.15082C3.09221 5.99942 3.96669 5.14681 5.10351 4.59297C6.24033 4.02456 7.58849 3.74036 9.14797 3.74036C10.722 3.74036 12.0702 4.02456 13.1924 4.59297C14.3293 5.14681 15.1964 5.99942 15.794 7.15082C16.4061 8.28764 16.7122 9.73782 16.7122 11.5013C16.7122 13.2503 16.4061 14.7005 15.794 15.8519C15.1964 17.0033 14.3293 17.8632 13.1924 18.4316C12.0702 18.9854 10.722 19.2623 9.14797 19.2623ZM9.14797 16.8575C9.90585 16.8575 10.569 16.7482 11.1374 16.5296C11.7204 16.311 12.2086 15.9903 12.6022 15.5677C12.9957 15.1304 13.2945 14.5985 13.4985 13.9717C13.7025 13.3305 13.8046 12.5944 13.8046 11.7637V11.2827C13.8046 10.4374 13.7025 9.69409 13.4985 9.05281C13.2945 8.41153 12.9957 7.87955 12.6022 7.45689C12.2086 7.01965 11.7204 6.69172 11.1374 6.4731C10.569 6.25448 9.90585 6.14517 9.14797 6.14517C8.39009 6.14517 7.71966 6.25448 7.13668 6.4731C6.56826 6.69172 6.0873 7.01965 5.69379 7.45689C5.30027 7.87955 5.00149 8.41153 4.79745 9.05281C4.60798 9.69409 4.51324 10.4374 4.51324 11.2827V11.7637C4.51324 12.5944 4.60798 13.3305 4.79745 13.9717C5.00149 14.5985 5.30027 15.1304 5.69379 15.5677C6.0873 15.9903 6.56826 16.311 7.13668 16.5296C7.71966 16.7482 8.39009 16.8575 9.14797 16.8575Z" fill="#131313"/>
</svg>
