<svg width="40" height="40" viewBox="0 0 40 40" fill="none" xmlns="http://www.w3.org/2000/svg">
<path d="M18.6667 14.6667L21.3333 25.3333M20 20L14.6667 21.3333M14.6667 16C14.6667 15.6464 14.8071 15.3072 15.0572 15.0572C15.3072 14.8071 15.6464 14.6667 16 14.6667H24C24.3536 14.6667 24.6928 14.8071 24.9428 15.0572C25.1928 15.3072 25.3333 15.6464 25.3333 16V24C25.3333 24.3536 25.1928 24.6928 24.9428 24.9428C24.6928 25.1928 24.3536 25.3333 24 25.3333H16C15.6464 25.3333 15.3072 25.1928 15.0572 24.9428C14.8071 24.6928 14.6667 24.3536 14.6667 24V16Z" stroke="#FFA500" stroke-width="1.25" stroke-linecap="round" stroke-linejoin="round"/>
</svg>
