<svg width="40" height="40" viewBox="0 0 40 40" fill="none" xmlns="http://www.w3.org/2000/svg">
<path d="M14.4 18H25.6M14.4 22H25.6M19.6667 14C18.5436 15.7997 17.9482 17.8786 17.9482 20C17.9482 22.1214 18.5436 24.2003 19.6667 26M20.3333 14C21.4564 15.7997 22.0519 17.8786 22.0519 20C22.0519 22.1214 21.4564 24.2003 20.3333 26M14 20C14 20.7879 14.1552 21.5681 14.4567 22.2961C14.7583 23.0241 15.2002 23.6855 15.7574 24.2426C16.3145 24.7998 16.9759 25.2417 17.7039 25.5433C18.4319 25.8448 19.2121 26 20 26C20.7879 26 21.5681 25.8448 22.2961 25.5433C23.0241 25.2417 23.6855 24.7998 24.2426 24.2426C24.7998 23.6855 25.2417 23.0241 25.5433 22.2961C25.8448 21.5681 26 20.7879 26 20C26 18.4087 25.3679 16.8826 24.2426 15.7574C23.1174 14.6321 21.5913 14 20 14C18.4087 14 16.8826 14.6321 15.7574 15.7574C14.6321 16.8826 14 18.4087 14 20Z" stroke="#7D7D7D" stroke-width="1.25" stroke-linecap="round" stroke-linejoin="round"/>
</svg>
