<svg width="40" height="40" viewBox="0 0 40 40" fill="none" xmlns="http://www.w3.org/2000/svg">
<path d="M14.6667 16C14.6667 17.1047 17.0547 18 20 18C22.9453 18 25.3333 17.1047 25.3333 16M14.6667 16C14.6667 14.8953 17.0547 14 20 14C22.9453 14 25.3333 14.8953 25.3333 16M14.6667 16V20M25.3333 16V20M14.6667 20C14.6667 21.1047 17.0547 22 20 22C20.7453 22 21.4553 21.9427 22.1 21.8393M14.6667 20V24C14.6667 25.1047 17.0547 26 20 26C20.1047 26 20.208 25.9987 20.3107 25.9967M22.6667 24.6667H26.6667M26.6667 24.6667L24.6667 22.6667M26.6667 24.6667L24.6667 26.6667" stroke="#7D7D7D" stroke-width="1.25" stroke-linecap="round" stroke-linejoin="round"/>
</svg>
