<svg width="40" height="40" viewBox="0 0 40 40" fill="none" xmlns="http://www.w3.org/2000/svg">
<path d="M18 15.3333H16.6667C16.3131 15.3333 15.9739 15.4738 15.7239 15.7239C15.4738 15.9739 15.3333 16.313 15.3333 16.6667V24.6667C15.3333 25.0203 15.4738 25.3594 15.7239 25.6095C15.9739 25.8595 16.3131 26 16.6667 26H23.3333C23.687 26 24.0261 25.8595 24.2762 25.6095C24.5262 25.3594 24.6667 25.0203 24.6667 24.6667V16.6667C24.6667 16.313 24.5262 15.9739 24.2762 15.7239C24.0261 15.4738 23.687 15.3333 23.3333 15.3333H22M18 15.3333C18 14.9797 18.1405 14.6406 18.3905 14.3905C18.6406 14.1405 18.9797 14 19.3333 14H20.6667C21.0203 14 21.3594 14.1405 21.6095 14.3905C21.8595 14.6406 22 14.9797 22 15.3333M18 15.3333C18 15.687 18.1405 16.0261 18.3905 16.2761C18.6406 16.5262 18.9797 16.6667 19.3333 16.6667H20.6667C21.0203 16.6667 21.3594 16.5262 21.6095 16.2761C21.8595 16.0261 22 15.687 22 15.3333M18 23.3333V20.6667M20 23.3333V22.6667M22 23.3333V22" stroke="#7D7D7D" stroke-width="1.25" stroke-linecap="round" stroke-linejoin="round"/>
</svg>
